#!OML:ASF E:\Mandelcareful walks\Project 1\Capture day 1\Session 1\Subject1.ASF
:FULLY-SPECIFIED
:DEGREES
395
root -1.19026 16.3469 0.342857 353.116 78.9315 348.033
lowerback 12.631 0.653013 -1.82147
upperback 7.65627 1.00628 -0.0611737
thorax 0.91761 0.583677 0.846788
lowerneck -20.6697 -4.20201 -8.3128
upperneck 31.8876 -3.37029 2.66748
head 14.7294 -1.89331 1.95014
rclavicle 3.97569e-016 -3.97569e-016
rhumerus -26.3869 -1.89032 -80.7098
rradius 34.4922
rwrist -15.5187
rhand -10.4246 -28.9755
rfingers 7.12502
rthumb 15.5747 -58.3684
lclavicle 3.97569e-016 -3.97569e-016
lhumerus -26.0539 2.7895 85.2225
lradius 29.3346
lwrist 12.1749
lhand -22.7008 -15.3671
lfingers 7.12502
lthumb 3.73204 14.58
rfemur 5.55174 4.09748 15.5716
rtibia 12.7683
rfoot -21.6323 -3.44833
rtoes 1.18897
lfemur -34.3428 15.9034 -13.8747
ltibia 41.8302
lfoot -13.1718 7.30186
ltoes -1.06038
396
root -0.975323 16.3491 0.23948 353.74 79.0643 348.68
lowerback 12.2829 0.858463 -2.36242
upperback 7.72508 1.23443 -0.221825
thorax 1.16674 0.681129 0.964409
lowerneck -20.8223 -4.44565 -8.2879
upperneck 32.2157 -3.87197 3.10552
head 14.9582 -2.03989 2.03735
rclavicle 2.72335e-014 -2.0276e-014
rhumerus -26.5439 -2.69409 -80.6341
rradius 33.7453
rwrist -15.1329
rhand -10.2694 -28.5123
rfingers 7.12502
rthumb 15.7243 -57.8935
lclavicle 2.72335e-014 -2.0276e-014
lhumerus -25.7502 2.44552 85.1627
lradius 29.0757
lwrist 12.2657
lhand -22.5867 -15.1017
lfingers 7.12502
lthumb 3.84221 14.8434
rfemur 6.8524 4.11238 14.9655
rtibia 11.851
rfoot -20.8364 -3.76422
rtoes 0.322373
lfemur -33.9143 15.962 -14.4359
ltibia 42.5123
lfoot -14.4455 6.78605
ltoes -0.354426
397
root -0.774854 16.3558 0.128507 354.211 79.3929 349.096
lowerback 11.9808 0.913754 -2.93013
upperback 7.51611 1.2438 -0.24053
thorax 1.1016 0.663348 1.26537
lowerneck -19.9567 -4.53116 -8.43512
upperneck 32.2383 -4.09955 3.39169
head 14.8037 -2.11268 2.15008
rclavicle -3.29983e-014 1.70955e-014
rhumerus -27.0632 -2.95513 -80.4397
rradius 32.8976
rwrist -14.7761
rhand -10.148 -28.1482
rfingers 7.12502
rthumb 15.8411 -57.5202
lclavicle -3.29983e-014 1.70955e-014
lhumerus -25.866 2.76314 85.1412
lradius 28.6845
lwrist 12.097
lhand -22.5058 -14.8161
lfingers 7.12502
lthumb 3.9203 15.1276
rfemur 7.54813 3.74034 14.3551
rtibia 11.8588
rfoot -20.0673 -4.02937
rtoes -0.979727
lfemur -33.5215 15.5881 -14.9489
ltibia 43.0296
lfoot -15.8451 6.43056
ltoes 0.547829
398
root -0.577658 16.3675 0.0152828 354.815 79.5926 349.672
lowerback 11.8224 1.11873 -3.28087
upperback 7.52981 1.48858 -0.351675
thorax 1.18836 0.77568 1.32352
lowerneck -19.8862 -4.81925 -8.62326
upperneck 32.2617 -4.62885 3.86792
head 14.8607 -2.29254 2.28237
rclavicle 3.37934e-015 -1.86858e-014
rhumerus -27.1091 -3.74901 -80.1973
rradius 32.081
rwrist -14.3237
rhand -9.98491 -27.9884
rfingers 7.12502
rthumb 15.9982 -57.3478
lclavicle 3.37934e-015 -1.86858e-014
lhumerus -25.4544 2.78498 85.1513
lradius 28.4221
lwrist 11.8243
lhand -22.462 -14.3815
lfingers 7.12502
lthumb 3.9626 15.5614
rfemur 7.48637 3.24005 13.6708
rtibia 13.2252
rfoot -19.4065 -3.9442
rtoes -2.93982
lfemur -32.9722 15.2349 -15.4445
ltibia 43.3743
lfoot -17.0358 6.04474
ltoes 0.0557501
399
root -0.381939 16.385 -0.0954666 355.754 79.5975 350.632
lowerback 11.6782 1.35752 -3.82433
upperback 7.52449 1.7589 -0.390396
thorax 1.23894 0.892349 1.56221
lowerneck -19.7416 -5.07185 -8.86038
upperneck 32.3351 -5.03482 4.18935
head 14.9164 -2.44795 2.38387
rclavicle -3.73715e-014 1.90833e-014
rhumerus -27.1139 -4.35256 -79.8927
rradius 31.197
rwrist -13.6742
rhand -9.78181 -27.5107
rfingers 7.12502
rthumb 16.1937 -56.8543
lclavicle -3.73715e-014 1.90833e-014
lhumerus -25.3141 3.20013 85.1614
lradius 28.2269
lwrist 11.4524
lhand -22.568 -14.5375
lfingers 7.12502
lthumb 3.86029 15.4073
rfemur 6.69199 2.86437 12.9346
rtibia 15.9212
rfoot -18.7754 -3.71818
rtoes -4.68534
lfemur -32.2493 15.0818 -15.9932
ltibia 43.5505
lfoot -17.8476 5.68463
ltoes -1.18043
400
root -0.200385 16.4106 -0.204343 356.687 79.5318 351.565
lowerback 11.5876 1.591 -4.42096
upperback 7.53031 2.01749 -0.383852
thorax 1.26687 1.00071 1.87802
lowerneck -19.678 -5.25773 -8.95424
upperneck 32.4463 -5.28975 4.2372
head 14.9823 -2.55954 2.37458
rclavicle 9.93923e-015 6.75868e-015
rhumerus -26.9466 -4.99615 -79.5825
rradius 30.2532
rwrist -12.7839
rhand -9.66116 -26.8183
rfingers 7.12502
rthumb 16.3099 -56.1524
lclavicle 9.93923e-015 6.75868e-015
lhumerus -25.0575 3.98723 85.1342
lradius 27.7792
lwrist 11.0338
lhand -22.6636 -14.3789
lfingers 7.12502
lthumb 3.76793 15.5675
rfemur 5.36108 2.49313 12.2476
rtibia 19.3442
rfoot -18.0433 -3.67304
rtoes -6.22767
lfemur -31.5005 14.8845 -16.5153
ltibia 43.5176
lfoot -18.5654 5.45606
ltoes -1.02236
401
root -0.0350328 16.4421 -0.311995 357.072 79.1828 351.859
lowerback 11.5871 1.90907 -4.84492
upperback 7.46945 2.39257 -0.394843
thorax 1.16793 1.17555 2.0619
lowerneck -19.7147 -5.34191 -8.80223
upperneck 32.6226 -5.40922 4.10203
head 15.0721 -2.60735 2.27221
rclavicle -3.49861e-014 3.57812e-015
rhumerus -26.7822 -5.85981 -79.3185
rradius 29.4316
rwrist -11.7891
rhand -9.47584 -26.8834
rfingers 7.12502
rthumb 16.4884 -56.2028
lclavicle -3.49861e-014 3.57812e-015
lhumerus -24.7971 4.51154 85.0846
lradius 27.3238
lwrist 10.9131
lhand -22.9176 -13.5228
lfingers 7.12502
lthumb 3.52267 16.4278
rfemur 3.46035 2.21467 11.7126
rtibia 23.2659
rfoot -16.8799 -3.66203
rtoes -6.52805
lfemur -30.7903 14.824 -16.878
ltibia 43.2765
lfoot -19.3028 5.45733
ltoes -0.195832
402
root 0.142551 16.4751 -0.40591 357.361 79.4694 352.316
lowerback 11.6677 1.96606 -5.27857
upperback 7.51007 2.43042 -0.425967
thorax 1.15499 1.18284 2.26611
lowerneck -19.8003 -5.26872 -8.40924
upperneck 32.8583 -5.30954 3.77461
head 15.1646 -2.55845 2.09018
rclavicle 6.95746e-015 8.34896e-015
rhumerus -26.5866 -6.64909 -79.1947
rradius 28.6792
rwrist -10.8571
rhand -9.27181 -27.4414
rfingers 7.12502
rthumb 16.6848 -56.7443
lclavicle 6.95746e-015 8.34896e-015
lhumerus -24.6807 4.71726 84.9853
lradius 27.0253
lwrist 11.2377
lhand -23.3532 -13.0515
lfingers 7.12502
lthumb 3.10198 16.9057
rfemur 1.90841 1.55473 11.2566
rtibia 27.4126
rfoot -15.4865 -3.86112
rtoes -4.77651
lfemur -29.7368 14.3561 -17.263
ltibia 42.8484
lfoot -19.8089 5.41428
ltoes 0.0384472
403
root 0.29796 16.5122 -0.492793 358.703 79.9799 353.812
lowerback 11.8528 1.92423 -5.88441
upperback 7.57658 2.31927 -0.481167
thorax 1.12317 1.11217 2.55544
lowerneck -19.9049 -5.07438 -8.0548
upperneck 32.9772 -5.0363 3.49412
head 15.1972 -2.43578 1.96521
rclavicle 2.78299e-015 1.74931e-014
rhumerus -26.2967 -7.00564 -79.2273
rradius 28.2155
rwrist -10.2932
rhand -9.35338 -28.0361
rfingers 7.12502
rthumb 16.6062 -57.3456
lclavicle 2.78299e-015 1.74931e-014
lhumerus -24.5326 4.93563 84.8628
lradius 26.8568
lwrist 11.619
lhand -23.5878 -12.625
lfingers 7.12502
lthumb 2.87548 17.3354
rfemur 0.197409 0.478365 10.6275
rtibia 31.5721
rfoot -14.0489 -3.96615
rtoes -3.49477
lfemur -28.7695 13.8415 -17.8861
ltibia 42.2873
lfoot -20.045 5.37286
ltoes 0.00105836
